# xmcd CD database file
#
# Track frame offsets:
#	150
#	27428
#	52686
#	69856
#
# Disc length: 1170 seconds
#
# Revision: 2
# Processed by: cddbd v1.5.2PL0 Copyright (c) Steve Scherf et al.
# Submitted via: CDex 1.70beta2
#
DISCID=26049004
DTITLE=一青窈 - 道案内／愛と誠のファンタジア
DYEAR=2012
DGENRE=J-Pop
TTITLE0=道案内
TTITLE1=愛と誠のファンタジア
TTITLE2=曙
TTITLE3=home
EXTD=YEAR: 2012
EXTT0=
EXTT1=
EXTT2=
EXTT3=
PLAYORDER=
